<svg width="40" height="40" viewBox="0 0 40 40" fill="none" xmlns="http://www.w3.org/2000/svg">
<g id="Direction Sign" clip-path="url(#clip0_0_78)">
<path id="Vector" fill-rule="evenodd" clip-rule="evenodd" d="M20.6248 34.9999C20.6248 34.3105 21.185 33.7504 21.875 33.7504C22.565 33.7504 23.1251 34.3105 23.1251 34.9999V36.2501C23.1251 36.9402 22.5654 37.5003 21.875 37.5003H18.125C17.4345 37.5003 16.8748 36.9402 16.8748 36.2501V3.75018C16.8748 3.06007 17.4345 2.49997 18.125 2.49997H21.875C22.5654 2.49997 23.1251 3.06007 23.1251 3.75018V30.0004C23.1251 30.6898 22.565 31.2499 21.875 31.2499C21.185 31.2499 20.6248 30.6898 20.6248 30.0004V5.00039H19.3751V34.9999H20.6248Z" fill="#F77A40"/>
<path id="Vector_2" fill-rule="evenodd" clip-rule="evenodd" d="M33.125 6.2495H21.875V12.4996H33.125L36.25 9.37453L33.125 6.2495Z" fill="#F4B943" fill-opacity="0.5"/>
<path id="Vector_3" fill-rule="evenodd" clip-rule="evenodd" d="M34.0087 5.36541C33.7744 5.13132 33.4562 4.9995 33.125 4.9995H21.875C21.1844 4.9995 20.625 5.55916 20.625 6.24951V12.4996C20.625 13.1899 21.1844 13.7496 21.875 13.7496H33.125C33.4562 13.7496 33.7744 13.6178 34.0087 13.3837L37.1337 10.2586C37.6219 9.77 37.6219 8.97908 37.1337 8.49044L34.0087 5.36541ZM23.125 7.49952V11.2496H32.6075L34.4825 9.37454L32.6075 7.49952H23.125Z" fill="#F77A40"/>
<path id="Vector_4" fill-rule="evenodd" clip-rule="evenodd" d="M6.875 8.74948C6.54375 8.74948 6.22562 8.8813 5.99125 9.11539L2.86625 12.2404C2.37812 12.7291 2.37812 13.52 2.86625 14.0086L5.99125 17.1337C6.22562 17.3677 6.54375 17.4996 6.875 17.4996H18.125C18.8156 17.4996 19.375 16.9399 19.375 16.2496V9.99949C19.375 9.30915 18.8156 8.74948 18.125 8.74948H6.875ZM7.3925 11.2495L5.5175 13.1245L7.3925 14.9995H16.875V11.2495H7.3925Z" fill="#F77A40"/>
<path id="Vector_5" fill-rule="evenodd" clip-rule="evenodd" d="M10.0002 37.5H30.0003C30.6903 37.5 31.2503 36.94 31.2503 36.25C31.2503 35.56 30.6903 35 30.0003 35H10.0002C9.31024 35 8.75024 35.56 8.75024 36.25C8.75024 36.94 9.31024 37.5 10.0002 37.5Z" fill="#F77A40"/>
</g>
<defs>
<clipPath id="clip0_0_78">
<rect width="40" height="40" fill="white"/>
</clipPath>
</defs>
</svg>
