<svg width="60" height="61" viewBox="0 0 60 61" fill="none" xmlns="http://www.w3.org/2000/svg">
<circle cx="30" cy="30.5" r="30" fill="#F77A40"/>
<path d="M39.92 31.8333C39.6267 31.8333 39.32 31.74 39.0267 31.6733C38.4327 31.5424 37.8489 31.3686 37.28 31.1533C36.6615 30.9283 35.9815 30.94 35.3711 31.1861C34.7606 31.4323 34.2628 31.8955 33.9733 32.4867L33.68 33.0867C32.3813 32.3642 31.188 31.467 30.1333 30.42C29.0864 29.3654 28.1891 28.172 27.4667 26.8733L28.0267 26.5C28.6178 26.2106 29.0811 25.7127 29.3272 25.1023C29.5734 24.4918 29.585 23.8119 29.36 23.1933C29.1483 22.6232 28.9746 22.0397 28.84 21.4467C28.7733 21.1533 28.72 20.8467 28.68 20.54C28.5181 19.6008 28.0262 18.7503 27.2928 18.1416C26.5595 17.533 25.6329 17.2061 24.68 17.22H20.68C20.1054 17.2146 19.5363 17.3331 19.0116 17.5674C18.4869 17.8017 18.0188 18.1463 17.6393 18.5777C17.2597 19.0092 16.9775 19.5173 16.812 20.0676C16.6465 20.6179 16.6015 21.1974 16.68 21.7667C17.3903 27.3525 19.9414 32.5425 23.9302 36.5168C27.919 40.4912 33.1183 43.0233 38.7067 43.7133H39.2133C40.1966 43.7148 41.1459 43.354 41.88 42.7C42.3018 42.3227 42.6388 41.8602 42.8686 41.3431C43.0985 40.8259 43.216 40.2659 43.2133 39.7V35.7C43.197 34.7738 42.8598 33.8821 42.2591 33.1769C41.6585 32.4717 40.8318 31.9968 39.92 31.8333ZM40.5867 39.8333C40.5864 40.0226 40.5459 40.2097 40.4677 40.3822C40.3896 40.5546 40.2756 40.7084 40.1333 40.8333C39.9844 40.962 39.8102 41.0581 39.6219 41.1155C39.4336 41.1729 39.2354 41.1903 39.04 41.1667C34.0465 40.5264 29.4083 38.242 25.857 34.6737C22.3056 31.1055 20.0432 26.4564 19.4267 21.46C19.4055 21.2647 19.4241 21.0671 19.4813 20.8792C19.5386 20.6913 19.6334 20.5169 19.76 20.3667C19.885 20.2244 20.0388 20.1105 20.2112 20.0323C20.3836 19.9541 20.5707 19.9136 20.76 19.9133H24.76C25.0701 19.9064 25.3728 20.0078 25.6162 20.2001C25.8596 20.3923 26.0283 20.6634 26.0933 20.9667C26.1467 21.3311 26.2133 21.6911 26.2933 22.0467C26.4474 22.7495 26.6524 23.4402 26.9067 24.1133L25.04 24.98C24.8804 25.0532 24.7368 25.1573 24.6176 25.2861C24.4983 25.415 24.4056 25.5661 24.3449 25.7309C24.2842 25.8957 24.2566 26.0708 24.2638 26.2463C24.271 26.4217 24.3127 26.5941 24.3867 26.7533C26.3056 30.8637 29.6097 34.1677 33.72 36.0867C34.0446 36.22 34.4087 36.22 34.7333 36.0867C34.8996 36.0272 35.0524 35.9353 35.1829 35.8162C35.3134 35.6972 35.4189 35.5535 35.4933 35.3933L36.32 33.5267C37.0093 33.7732 37.7128 33.978 38.4267 34.14C38.7822 34.22 39.1422 34.2867 39.5067 34.34C39.8099 34.405 40.081 34.5738 40.2733 34.8171C40.4655 35.0605 40.5669 35.3633 40.56 35.6733L40.5867 39.8333Z" fill="white"/>
</svg>
