<svg width="18" height="21" viewBox="0 0 18 21" fill="none" xmlns="http://www.w3.org/2000/svg">
<path d="M17.46 8.13C17.3196 6.66892 16.8032 5.26909 15.9612 4.06682C15.1191 2.86456 13.9801 1.90083 12.655 1.2695C11.3299 0.638159 9.86388 0.360724 8.39972 0.464207C6.93555 0.56769 5.52314 1.04856 4.3 1.86C3.2492 2.56265 2.36706 3.4893 1.71695 4.57339C1.06684 5.65749 0.664898 6.87211 0.540003 8.13C0.417485 9.37966 0.574677 10.6409 1.00017 11.8223C1.42567 13.0036 2.1088 14.0755 3 14.96L8.3 20.27C8.39297 20.3637 8.50357 20.4381 8.62543 20.4889C8.74729 20.5397 8.87799 20.5658 9.01 20.5658C9.14201 20.5658 9.27272 20.5397 9.39458 20.4889C9.51644 20.4381 9.62704 20.3637 9.72 20.27L15 14.96C15.8912 14.0755 16.5743 13.0036 16.9998 11.8223C17.4253 10.6409 17.5825 9.37966 17.46 8.13ZM13.6 13.55L9 18.15L4.4 13.55C3.72209 12.8721 3.20281 12.0523 2.87947 11.1498C2.55614 10.2472 2.43679 9.2842 2.53 8.33C2.62382 7.36111 2.93177 6.42516 3.43157 5.58985C3.93138 4.75453 4.61056 4.04071 5.42 3.5C6.48095 2.79524 7.72631 2.4193 9 2.4193C10.2737 2.4193 11.5191 2.79524 12.58 3.5C13.387 4.03862 14.0647 4.74928 14.5644 5.58094C15.064 6.4126 15.3733 7.34461 15.47 8.31C15.5663 9.26743 15.4484 10.2343 15.125 11.1406C14.8016 12.0468 14.2807 12.8698 13.6 13.55ZM9 4.5C8.10999 4.5 7.23996 4.76392 6.49994 5.25839C5.75992 5.75286 5.18314 6.45566 4.84255 7.27793C4.50195 8.1002 4.41284 9.005 4.58647 9.87791C4.7601 10.7508 5.18869 11.5526 5.81802 12.182C6.44736 12.8113 7.24918 13.2399 8.1221 13.4135C8.99501 13.5872 9.89981 13.4981 10.7221 13.1575C11.5443 12.8169 12.2471 12.2401 12.7416 11.5001C13.2361 10.76 13.5 9.89002 13.5 9C13.4974 7.80734 13.0224 6.66428 12.1791 5.82094C11.3357 4.9776 10.1927 4.50265 9 4.5ZM9 11.5C8.50555 11.5 8.0222 11.3534 7.61108 11.0787C7.19995 10.804 6.87952 10.4135 6.6903 9.95671C6.50109 9.4999 6.45158 8.99723 6.54804 8.51228C6.6445 8.02733 6.88261 7.58187 7.23224 7.23224C7.58187 6.88261 8.02732 6.6445 8.51228 6.54804C8.99723 6.45158 9.4999 6.50109 9.95671 6.6903C10.4135 6.87952 10.804 7.19996 11.0787 7.61108C11.3534 8.0222 11.5 8.50555 11.5 9C11.5 9.66304 11.2366 10.2989 10.7678 10.7678C10.2989 11.2366 9.66304 11.5 9 11.5Z" fill="#F77A40"/>
</svg>
